<svg xmlns="http://www.w3.org/2000/svg" viewBox="0 0 120.73 120.73"><defs><style>.cls-1{fill:#fff;}</style></defs><g id="Layer_2" data-name="Layer 2"><g id="katman_1" data-name="katman 1"><path class="cls-1" d="M60.37,120.73a61.53,61.53,0,0,1-30.27-7.66,57.16,57.16,0,0,1-22-21.81A60.16,60.16,0,0,1,0,60.89,59,59,0,0,1,17.79,17.81C29.59,6,43.92,0,60.37,0S91,6,102.87,17.81a58.86,58.86,0,0,1,17.86,43.08,60.16,60.16,0,0,1-8.11,30.37,57.16,57.16,0,0,1-22,21.81,61.49,61.49,0,0,1-30.26,7.66ZM60.37,7c-14.73,0-27,5.16-37.62,15.76S7,45.84,7,60.89a53.21,53.21,0,0,0,7.18,26.87,50.27,50.27,0,0,0,19.32,19.18,54.6,54.6,0,0,0,26.86,6.78,54.66,54.66,0,0,0,26.86-6.78,50.25,50.25,0,0,0,19.31-19.18,53.21,53.21,0,0,0,7.18-26.87c0-15-5.17-27.51-15.8-38.11S75,7,60.37,7Z"/><path class="cls-1" d="M59.6,37.25l-2.14-6.68,1.07,3.34-1.09-3.33c.42-.14,10.28-3.49,11.74-12.81l6.93,1.09C74,32.5,60.18,37.06,59.6,37.25Z"/><path class="cls-1" d="M59.06,75.87l-4.5-5.38c.24-.21,24-20.37,23.06-45.11l7-.25c1,28.21-24.49,49.83-25.57,50.74Z"/><path class="cls-1" d="M51.81,64.51C43.39,51,20.29,42,20.06,41.94l2.5-6.55c1,.4,25.53,9.89,35.2,25.41Z"/><path class="cls-1" d="M73.75,56.17c-.68-.32-16.66-8.14-26.27-36.74l6.64-2.23c8.58,25.52,22.5,32.57,22.64,32.64Z"/><path class="cls-1" d="M25.22,63.25l-4.13-5.67c23.1-16.8,14.43-30.51,14.05-31.09l5.79-4c.14.2,13.14,19.74-15.71,40.72Z"/><path class="cls-1" d="M93.73,54.26a20.28,20.28,0,0,1-17.43-9.7l6.09-3.48c.57,1,6,9.41,18.1,4.81L103,52.45a26.2,26.2,0,0,1-9.25,1.81Z"/><path class="cls-1" d="M20.35,81.94l-2.14-6.68,1.07,3.34L18.2,75.26C18.77,75.08,32,70.61,34,58l6.93,1.08C38.27,76,21.08,81.7,20.35,81.94Z"/><path class="cls-1" d="M53,116.68l-6.27-3.14,3.13,1.57-3.14-1.56c.49-1,11.56-23.92-8.76-36.79l-6.82-3.87,3.46-6.1,7,4C62.3,83.87,58.1,106.53,53,116.68Z"/><path class="cls-1" d="M67.73,116.68C62.63,106.53,58.44,83.87,79,70.83l7.13-4,3.46,6.1-7,4c-8.38,5.32-12.46,13.09-12,23A38.55,38.55,0,0,0,74,113.54Z"/><path class="cls-1" d="M100.22,79.73c-1.38-.4-13.57-4.12-17.53-12.63a13.4,13.4,0,0,1,.13-11.39l6.4,2.86a6.33,6.33,0,0,0-.17,5.57c2.21,4.77,10.22,8,13.12,8.85Z"/></g></g></svg>